<?xml version="1.0" encoding="UTF-8"?>
<svg id="_Слой_2" data-name="Слой 2" xmlns="http://www.w3.org/2000/svg" viewBox="0 0 116.98 18.78">
  <defs>
    <style>
      .cls-1 {
        fill: #fff;
      }

      .cls-2, .cls-3 {
        fill: #f36f21;
      }

      .cls-3 {
        fill-rule: evenodd;
      }
    </style>
  </defs>
  <g id="_Слой_1-2" data-name="Слой 1">
    <g>
      <path class="cls-1" d="M9.65,12.72V3.02h-1.31l-3.29,8.5L1.79,3.02H.35V12.72H1.6V5.8l2.71,6.92h1.38l2.71-6.92v6.92h1.26Zm22.31-.26v-1.09c-.13,.06-.29,.13-.47,.19-.19,.06-.4,.12-.64,.16-.24,.04-.51,.07-.8,.07-.5,0-.94-.07-1.32-.2-.38-.14-.7-.36-.95-.66-.26-.3-.44-.69-.57-1.18-.13-.48-.19-1.07-.19-1.76v-.13c0-1.26,.23-2.2,.68-2.82,.45-.62,1.14-.94,2.06-.94,.33,0,.61,.01,.84,.03,.23,.02,.42,.05,.58,.09,.16,.03,.3,.07,.42,.11,.12,.04,.25,.08,.37,.12v-1.24c-.13-.05-.29-.11-.48-.15-.19-.05-.41-.09-.67-.12-.26-.03-.56-.05-.92-.05-.69,0-1.3,.11-1.84,.33-.54,.22-.99,.54-1.36,.96-.37,.42-.65,.92-.84,1.52-.19,.59-.29,1.27-.29,2.02v.39c0,.68,.08,1.28,.22,1.8,.14,.52,.35,.97,.61,1.34,.26,.37,.56,.68,.91,.92,.35,.24,.72,.42,1.13,.53,.41,.11,.83,.17,1.27,.17,.41,0,.77-.02,1.07-.07,.3-.04,.55-.1,.75-.16,.2-.06,.34-.13,.44-.19m9.99-4.27v-.53c0-1.02-.14-1.88-.41-2.59-.27-.71-.7-1.25-1.26-1.61-.56-.37-1.28-.55-2.15-.56-.64,0-1.21,.11-1.68,.33-.48,.22-.88,.54-1.19,.95-.32,.41-.55,.91-.71,1.5-.16,.59-.24,1.25-.24,1.98v.55c0,.81,.09,1.51,.28,2.09,.18,.59,.44,1.07,.78,1.45,.34,.38,.74,.66,1.21,.85,.47,.18,.99,.27,1.56,.27,.58,0,1.11-.09,1.57-.26,.47-.18,.87-.45,1.2-.82,.34-.37,.59-.86,.77-1.46,.18-.6,.27-1.32,.27-2.15m-1.43-.13c0,.75-.05,1.37-.15,1.86-.1,.5-.25,.89-.45,1.18-.2,.29-.45,.49-.75,.61-.3,.12-.65,.18-1.04,.18-.39,0-.73-.06-1.03-.2-.3-.13-.55-.35-.75-.65-.2-.3-.36-.7-.46-1.19-.1-.49-.16-1.1-.16-1.82v-.24c0-.69,.05-1.28,.14-1.77,.09-.49,.23-.88,.43-1.18,.19-.3,.44-.52,.74-.66,.3-.14,.67-.21,1.09-.21,.59,0,1.06,.14,1.41,.42,.35,.28,.6,.71,.76,1.27,.15,.56,.23,1.27,.22,2.12v.26Zm5.63-1.13v-2.82h4.61v-1.08h-5.97V12.72h3.23c.72,0,1.32-.11,1.81-.33,.49-.22,.86-.54,1.12-.97,.25-.43,.38-.96,.38-1.59,0-.62-.13-1.15-.38-1.58-.25-.43-.61-.77-1.09-1-.48-.23-1.06-.34-1.74-.34h-1.98Zm3.77,2.83c0,.39-.05,.72-.17,1.01-.11,.28-.29,.5-.55,.65-.25,.16-.58,.23-.99,.23h-2.07v-3.66h1.95c.43,0,.78,.08,1.05,.23,.27,.15,.46,.35,.59,.62,.12,.26,.19,.57,.18,.92m4.89,1.66c-.17,0-.35-.02-.52-.07-.17-.05-.36-.12-.57-.22v1.3c.19,.12,.41,.2,.66,.25,.24,.05,.5,.08,.75,.08,.32,0,.6-.04,.85-.14,.25-.09,.47-.26,.66-.49,.19-.23,.35-.55,.49-.96,.14-.41,.26-.93,.35-1.55,.1-.63,.18-1.38,.24-2.27,.03-.46,.07-.97,.1-1.51,.04-.55,.07-1.12,.1-1.71h2.57V12.72h1.39V3.02h-5.17c-.05,.84-.09,1.61-.14,2.3-.05,.69-.09,1.31-.14,1.86-.06,.72-.13,1.33-.2,1.82-.07,.5-.16,.9-.26,1.22-.1,.32-.2,.56-.32,.73-.12,.17-.25,.29-.39,.35-.14,.06-.3,.09-.47,.09m10.06,1.05v-1.08c.13,.06,.29,.13,.47,.19,.19,.07,.4,.12,.64,.17,.24,.05,.51,.07,.8,.07,.52,0,.96-.05,1.34-.17,.38-.11,.69-.3,.94-.57,.25-.27,.44-.62,.57-1.07,.13-.45,.21-1,.23-1.67h-3.93v-1.07h3.91c-.04-.76-.16-1.37-.37-1.84s-.5-.82-.89-1.04c-.39-.22-.89-.33-1.5-.33-.33,0-.61,.01-.84,.04-.23,.02-.42,.05-.58,.09-.16,.04-.3,.08-.42,.12-.12,.04-.25,.09-.37,.12v-1.22c.13-.05,.29-.11,.48-.15,.19-.05,.41-.09,.67-.12,.26-.03,.57-.05,.92-.05,.96,0,1.77,.19,2.41,.56,.64,.37,1.12,.91,1.44,1.63,.32,.72,.48,1.6,.48,2.64v.39c0,.88-.11,1.62-.32,2.23-.21,.61-.5,1.1-.88,1.47-.37,.37-.81,.64-1.31,.81-.5,.17-1.04,.25-1.62,.25-.41,0-.77-.02-1.07-.07-.3-.04-.55-.1-.75-.16-.2-.06-.34-.13-.44-.19m15.95,.26V3.02h-1.39V7.26h-3.9V3.02h-1.39V12.72h1.39v-4.37h3.9v4.37h1.39Zm9.26,0v-1.07h-4.52v-3.32h3.47v-1.07h-3.47v-3.17h4.32v-1.08h-5.67V12.72h5.87Zm8.77-6.45v-.61c0-.39-.06-.74-.19-1.06-.12-.32-.3-.6-.54-.84-.24-.24-.53-.42-.87-.55-.34-.13-.74-.19-1.18-.2h-3.35V12.72h1.38v-3.93h2.15c.41,0,.78-.07,1.1-.2,.32-.13,.6-.31,.82-.54,.22-.23,.39-.5,.51-.8,.12-.3,.18-.63,.18-.98m-1.43,.04c0,.25-.04,.48-.13,.68-.09,.2-.22,.36-.4,.48-.18,.12-.4,.18-.68,.18h-2.12v-3.49h2.02c.26,0,.49,.06,.69,.19,.19,.12,.35,.29,.45,.51,.11,.22,.16,.48,.17,.77v.67Zm9.68-3.29h-5.52V12.72h1.39V4.15h4.14v-1.13Zm9.89,5.16v-.53c0-1.02-.14-1.88-.41-2.59-.27-.71-.7-1.25-1.26-1.61-.56-.37-1.28-.55-2.15-.56-.64,0-1.21,.11-1.68,.33-.48,.22-.88,.54-1.19,.95-.32,.41-.55,.91-.71,1.5-.16,.59-.24,1.25-.24,1.98v.55c0,.81,.09,1.51,.27,2.09,.18,.59,.44,1.07,.78,1.45,.34,.38,.74,.66,1.21,.85,.47,.18,.99,.27,1.56,.27,.58,0,1.11-.09,1.57-.26,.47-.18,.87-.45,1.2-.82,.34-.37,.59-.86,.77-1.46,.18-.6,.27-1.32,.27-2.15m-1.43-.13c0,.75-.05,1.37-.15,1.86-.1,.5-.25,.89-.45,1.18s-.45,.49-.75,.61c-.3,.12-.65,.18-1.04,.18-.39,0-.73-.06-1.03-.2-.3-.13-.55-.35-.75-.65-.2-.3-.36-.7-.46-1.19-.1-.49-.16-1.1-.16-1.82v-.24c0-.69,.05-1.28,.14-1.77,.09-.49,.23-.88,.43-1.18,.19-.3,.44-.52,.74-.66,.3-.14,.67-.21,1.09-.21,.59,0,1.06,.14,1.41,.42,.35,.28,.6,.71,.76,1.27,.15,.56,.23,1.27,.22,2.12v.26Z"/>
      <polygon class="cls-3" points="17.82 0 18.75 2.6 18.44 2.6 17.82 1.15 17.2 2.6 16.89 2.6 17.82 0"/>
      <polygon class="cls-3" points="14.73 1.04 16.49 2.78 16.24 2.9 15.17 1.97 15.24 3.38 14.98 3.51 14.73 1.04"/>
      <polygon class="cls-3" points="12.52 3.05 14.57 3.77 14.42 3.96 13.22 3.62 13.8 4.73 13.65 4.92 12.52 3.05"/>
      <polygon class="cls-3" points="11.3 5.69 13.36 5.46 13.3 5.7 12.18 5.9 13.07 6.66 13.01 6.9 11.3 5.69"/>
      <polygon class="cls-3" points="21.06 1.08 19.28 2.8 19.53 2.92 20.61 2 20.53 3.42 20.78 3.54 21.06 1.08"/>
      <polygon class="cls-3" points="23.19 3.05 21.13 3.76 21.29 3.96 22.49 3.62 21.9 4.72 22.06 4.92 23.19 3.05"/>
      <polygon class="cls-3" points="24.37 5.57 22.31 5.38 22.37 5.62 23.5 5.8 22.63 6.57 22.69 6.81 24.37 5.57"/>
      <path class="cls-3" d="M17.9,2.78c2.41,0,4.37,1.96,4.37,4.39s-1.96,4.39-4.37,4.39-4.37-1.96-4.37-4.39,1.96-4.39,4.37-4.39m0,.91c-1.91,0-3.47,1.56-3.47,3.48s1.55,3.48,3.47,3.48,3.47-1.56,3.47-3.48-1.55-3.48-3.47-3.48"/>
      <polygon class="cls-3" points="17.82 14.56 18.75 11.96 18.44 11.96 17.82 13.42 17.2 11.96 16.89 11.96 17.82 14.56"/>
      <polygon class="cls-3" points="14.85 13.58 16.58 11.81 16.32 11.69 15.28 12.64 15.31 11.22 15.06 11.11 14.85 13.58"/>
      <polygon class="cls-3" points="12.38 11.34 14.46 10.69 14.31 10.49 13.1 10.79 13.72 9.71 13.57 9.51 12.38 11.34"/>
      <polygon class="cls-3" points="11.25 8.65 13.3 8.95 13.25 8.7 12.13 8.46 13.05 7.74 12.99 7.5 11.25 8.65"/>
      <polygon class="cls-3" points="20.86 13.58 19.13 11.81 19.38 11.69 20.43 12.64 20.39 11.22 20.65 11.11 20.86 13.58"/>
      <polygon class="cls-3" points="23.32 11.35 21.24 10.7 21.39 10.5 22.6 10.81 21.98 9.72 22.13 9.52 23.32 11.35"/>
      <polygon class="cls-3" points="24.44 8.74 22.38 9.01 22.44 8.77 23.56 8.54 22.65 7.81 22.71 7.57 24.44 8.74"/>
      <path class="cls-2" d="M0,17.49H28.99v-.43H0v.43Zm87.81,0h28.99v-.43h-28.99v.43Z"/>
      <path class="cls-1" d="M32.01,18.27c-.22,0-.46-.04-.72-.11l.07-.31c.23,.07,.45,.11,.65,.11,.42,0,.63-.25,.63-.74v-.14h-.87l-.03-.31h.9c0-.29-.05-.5-.15-.63-.1-.14-.26-.2-.48-.2-.19,0-.41,.04-.65,.11l-.07-.31c.27-.08,.51-.12,.72-.12,.29,0,.53,.09,.71,.26,.18,.18,.27,.43,.27,.77v.6c0,.33-.09,.59-.27,.76-.18,.18-.42,.26-.71,.26"/>
      <polygon class="cls-1" points="34.27 18.22 34.27 15.67 34.63 15.67 34.63 16.76 35.68 16.76 35.68 15.67 36.03 15.67 36.03 18.22 35.68 18.22 35.68 17.08 34.63 17.08 34.63 18.22 34.27 18.22"/>
      <polygon class="cls-1" points="37.37 18.22 37.37 15.67 38.77 15.67 38.77 15.98 37.73 15.98 37.73 16.78 38.61 16.78 38.59 17.09 37.73 17.09 37.73 17.91 38.8 17.91 38.8 18.22 37.37 18.22"/>
      <path class="cls-1" d="M40.07,18.22v-2.56h.85c.23,0,.41,.08,.56,.23,.14,.15,.21,.33,.21,.55s-.07,.4-.21,.55c-.14,.15-.33,.23-.56,.23h-.49v1.01h-.36Zm.36-1.32h.49c.13,0,.23-.04,.3-.13,.07-.09,.11-.2,.11-.33s-.04-.25-.11-.33c-.07-.08-.17-.13-.3-.13h-.49v.92Z"/>
      <polygon class="cls-1" points="42.86 18.22 42.86 15.67 44.21 15.67 44.21 15.98 43.22 15.98 43.22 18.22 42.86 18.22"/>
      <path class="cls-1" d="M45.33,18.22v-2.56h.36v1.52c0,.15,0,.28,0,.37l1.16-1.89h.29v2.56h-.36v-1.48c0-.13,0-.25,.01-.38l-1.16,1.86h-.3Z"/>
      <path class="cls-1" d="M48.33,18.22l.49-1.06c-.15-.05-.27-.14-.36-.27-.09-.13-.13-.29-.13-.45,0-.22,.07-.4,.21-.55,.14-.15,.33-.23,.55-.23h.87v2.56h-.36v-1.01h-.43l-.46,1.01h-.4Zm.78-1.32h.5v-.92h-.5c-.13,0-.23,.04-.3,.13-.07,.08-.11,.19-.11,.33s.04,.25,.11,.33c.07,.09,.17,.13,.3,.13"/>
      <polygon class="cls-1" points="52.93 18.22 52.93 15.67 54.7 15.67 54.7 18.22 54.34 18.22 54.34 15.98 53.29 15.98 53.29 18.22 52.93 18.22"/>
      <path class="cls-1" d="M55.97,17.24v-.59c0-.33,.09-.59,.27-.76,.18-.18,.4-.27,.68-.27s.5,.09,.68,.27,.27,.43,.27,.76v.59c0,.33-.09,.58-.27,.76-.18,.18-.4,.27-.68,.27s-.5-.09-.68-.27c-.18-.18-.27-.43-.27-.76m.36-.02c0,.24,.05,.43,.16,.55,.11,.12,.25,.18,.43,.18s.32-.06,.43-.18c.11-.12,.16-.3,.16-.55v-.55c0-.25-.05-.43-.16-.55-.11-.12-.25-.18-.43-.18s-.32,.06-.43,.18c-.1,.12-.16,.31-.16,.55v.55Z"/>
      <path class="cls-1" d="M58.86,18.78v-.87h.26c.13-.2,.24-.51,.32-.94,.08-.42,.13-.86,.13-1.31h1.44v2.25h.31v.81l-.34,.06v-.56h-1.8v.5l-.34,.06Zm.66-.87h1.14v-1.93h-.75c-.02,.44-.06,.83-.13,1.16-.07,.33-.16,.59-.25,.77"/>
      <path class="cls-1" d="M62.3,18.22l.3-2.56h.42l.54,1.41c.02,.06,.05,.17,.1,.33,.05-.16,.08-.27,.11-.33l.53-1.41h.42l.3,2.56h-.35l-.2-1.73c-.01-.11-.02-.23-.03-.37-.05,.18-.09,.31-.11,.37l-.46,1.24h-.4l-.46-1.24c-.04-.11-.08-.23-.12-.37-.01,.22-.02,.35-.02,.37l-.2,1.73h-.35Z"/>
      <path class="cls-1" d="M66.15,17.24v-.59c0-.33,.09-.59,.27-.76,.18-.18,.4-.27,.68-.27s.5,.09,.68,.27,.27,.43,.27,.76v.59c0,.33-.09,.58-.27,.76-.18,.18-.4,.27-.68,.27s-.5-.09-.68-.27c-.18-.18-.27-.43-.27-.76m.36-.02c0,.24,.05,.43,.16,.55,.11,.12,.25,.18,.43,.18s.32-.06,.43-.18c.11-.12,.16-.3,.16-.55v-.55c0-.25-.05-.43-.16-.55-.11-.12-.25-.18-.43-.18s-.32,.06-.43,.18c-.1,.12-.16,.31-.16,.55v.55Z"/>
      <path class="cls-1" d="M70.88,17.85l.07,.31c-.26,.08-.5,.11-.72,.11-.3,0-.53-.09-.72-.26-.18-.18-.27-.43-.27-.76v-.61c0-.33,.09-.59,.27-.76,.18-.18,.42-.26,.72-.26,.23,0,.47,.04,.72,.12l-.07,.3c-.23-.07-.45-.11-.65-.11s-.35,.06-.46,.18c-.11,.12-.17,.3-.17,.55v.56c0,.25,.06,.43,.17,.55,.11,.12,.27,.18,.47,.18,.21,0,.43-.04,.65-.11"/>
      <path class="cls-1" d="M72.15,18.22v-2.56h.36v1.17l.52-.18c.09-.03,.15-.07,.2-.13,.04-.05,.08-.12,.1-.21l.17-.65h.35l-.19,.72c-.03,.13-.08,.24-.14,.32-.06,.08-.14,.14-.24,.18l.69,1.34h-.4l-.61-1.22-.44,.17v1.05h-.36Z"/>
      <path class="cls-1" d="M75.02,17.24v-.59c0-.33,.09-.59,.27-.76,.18-.18,.4-.27,.68-.27s.5,.09,.68,.27,.27,.43,.27,.76v.59c0,.33-.09,.58-.27,.76-.18,.18-.4,.27-.68,.27s-.5-.09-.68-.27c-.18-.18-.27-.43-.27-.76m.36-.02c0,.24,.05,.43,.16,.55,.11,.12,.25,.18,.43,.18s.32-.06,.43-.18c.11-.12,.16-.3,.16-.55v-.55c0-.25-.05-.43-.16-.55-.11-.12-.25-.18-.43-.18s-.32,.06-.43,.18c-.1,.12-.16,.31-.16,.55v.55Z"/>
      <path class="cls-1" d="M78.95,18.22h-.77v-2.56h.78c.25,0,.44,.06,.58,.19,.14,.13,.21,.29,.21,.49,0,.24-.11,.42-.33,.54,.14,.06,.25,.14,.32,.25,.07,.11,.1,.23,.1,.36,0,.2-.08,.37-.24,.52-.16,.15-.38,.22-.67,.22m-.41-1.46h.38c.15,0,.26-.04,.35-.11,.08-.07,.13-.17,.13-.28s-.04-.22-.11-.28c-.08-.07-.19-.1-.33-.1h-.41v.78Zm0,1.15h.41c.18,0,.31-.04,.41-.11,.09-.08,.14-.18,.14-.31s-.04-.23-.13-.31c-.09-.08-.21-.11-.39-.11h-.44v.84Z"/>
      <path class="cls-1" d="M81.04,18.23v-2.56h.36v1.04h.53c.23,0,.41,.07,.56,.22,.14,.15,.21,.33,.21,.54s-.07,.39-.21,.54c-.14,.15-.33,.22-.56,.22h-.89Zm.36-.31h.52c.13,0,.23-.04,.3-.12,.07-.08,.11-.19,.11-.33s-.04-.24-.11-.33c-.07-.08-.17-.12-.3-.12h-.52v.89Z"/>
      <path class="cls-1" d="M83.7,18.22l.49-1.06c-.15-.05-.27-.14-.36-.27-.09-.13-.13-.29-.13-.45,0-.22,.07-.4,.21-.55,.14-.15,.33-.23,.55-.23h.87v2.56h-.36v-1.01h-.43l-.46,1.01h-.4Zm.78-1.32h.5v-.92h-.5c-.13,0-.23,.04-.3,.13-.07,.08-.11,.19-.11,.33s.04,.25,.11,.33c.07,.09,.17,.13,.3,.13"/>
    </g>
  </g>
</svg>